<svg xmlns="http://www.w3.org/2000/svg" viewBox="0 0 500 500" style="enable-background:new 0 0 500 500" xml:space="preserve"><path style="fill:#92e3a9" d="M471.189 262.658c-10.692 39.893-36.083 84.393-76.248 100.695-60.687 24.636-63.329 75.709-175.673 81.753-17.516.944-33.876.035-49.065-2.462a188.824 188.824 0 0 1-23.474-5.389C78.823 417.038 39.143 362.028 30.473 301.326c-11.416-79.836 40.878-123.417 75.099-149.281 34.222-25.864 69.746-116.783 180.142-123.593 16.832-1.031 33.79-.341 50.431 2.503 37.985 6.475 77.746 25.035 102.721 55.343a148.37 148.37 0 0 1 5.423 7.013c34.025 46.857 41.479 114.96 26.9 169.347z"/><path style="opacity:.7;fill:#fff" d="M471.189 262.658c-10.692 39.893-36.083 84.393-76.248 100.695-60.687 24.636-63.329 75.709-175.673 81.753-17.516.944-33.876.035-49.065-2.462a188.824 188.824 0 0 1-23.474-5.389C78.823 417.038 39.143 362.028 30.473 301.326c-11.416-79.836 40.878-123.417 75.099-149.281 34.222-25.864 69.746-116.783 180.142-123.593 16.832-1.031 33.79-.341 50.431 2.503 37.985 6.475 77.746 25.035 102.721 55.343a148.37 148.37 0 0 1 5.423 7.013c34.025 46.857 41.479 114.96 26.9 169.347z"/><path style="opacity:.3;fill:none;stroke:#000;stroke-miterlimit:10" d="M88.36 110.729v-5.666c0-11.187-7.442-15.146-15.047-15.146-7.754 0-14.879 5.7-14.879 15.146v5.666h-2.118v31.38h33.995v-31.38H88.36zm-14.043 17.246v5.685h-3.22v-5.685a4.289 4.289 0 0 1 1.61-8.268 4.29 4.29 0 0 1 1.61 8.268zm9.332-17.246H62.977v-5.666c0-5.699 4.637-10.336 10.336-10.336 5.699 0 10.336 3.899 10.336 10.336v5.666zM208.299 78.577h-96.354c-7.442 0-13.475-6.033-13.475-13.475 0-7.442 6.033-13.475 13.475-13.475h96.354c7.442 0 13.475 6.033 13.475 13.475 0 7.442-6.033 13.475-13.475 13.475z"/><g style="opacity:.3"><path d="m124.109 63.848 2.809 3.101-1.351 1.008-2.095-3.685-2.067 3.685-1.351-1.008 2.783-3.101-4.109-.848.503-1.618 3.87 1.697-.477-4.188h1.696l-.45 4.188 3.87-1.669.503 1.616-4.134.822zM134.576 63.848l2.809 3.101-1.352 1.008-2.095-3.685-2.067 3.685-1.352-1.008 2.783-3.101-4.107-.848.503-1.618 3.87 1.697-.477-4.188h1.697l-.45 4.188 3.87-1.669.503 1.616-4.135.822zM145.044 63.848l2.809 3.101-1.352 1.008-2.095-3.685-2.068 3.685-1.352-1.008 2.784-3.101-4.107-.848.503-1.618 3.87 1.697-.477-4.188h1.697l-.45 4.188 3.87-1.669.503 1.616-4.135.822zM155.511 63.848l2.809 3.101-1.352 1.008-2.095-3.685-2.068 3.685-1.352-1.008 2.784-3.101L150.13 63l.503-1.618 3.871 1.697-.477-4.188h1.697l-.45 4.188 3.87-1.669.503 1.616-4.136.822zM165.979 63.848l2.809 3.101-1.352 1.008-2.095-3.685-2.067 3.685-1.352-1.008 2.783-3.101-4.107-.848.503-1.618 3.87 1.697-.477-4.188h1.697l-.45 4.188 3.87-1.669.503 1.616-4.135.822zM176.446 63.848l2.809 3.101-1.351 1.008-2.095-3.685-2.067 3.685-1.352-1.008 2.783-3.101-4.108-.848.503-1.618 3.87 1.697-.477-4.188h1.697l-.45 4.188 3.87-1.669.503 1.616-4.135.822zM186.915 63.848l2.809 3.101-1.352 1.008-2.095-3.685-2.068 3.685-1.351-1.008 2.783-3.101-4.108-.848.503-1.618 3.87 1.697-.477-4.188h1.697l-.45 4.188 3.87-1.669.503 1.616-4.134.822zM197.382 63.848l2.809 3.101-1.351 1.008-2.095-3.685-2.068 3.685-1.352-1.008 2.784-3.101L192 63l.503-1.618 3.87 1.697-.477-4.188h1.697l-.45 4.188 3.87-1.669.503 1.616-4.134.822z"/></g><path style="opacity:.3;fill:none;stroke:#000;stroke-miterlimit:10" d="M83.705 235.442c-.889-1.536-2.134-2.409-3.437-2.409H78V231c1.619-1.905 2.666-4.801 2.666-7.773 0-5.1-3.069-9.235-6.855-9.235s-6.855 4.135-6.855 9.235c0 2.857.963 5.648 2.475 7.552v2.255h-3.032c-1.336 0-2.612.872-3.524 2.409l-4.108 6.922h28.944l-4.006-6.923z"/><circle transform="rotate(-67.5 73.43 230.172)" style="opacity:.3;fill:none;stroke:#000;stroke-miterlimit:10" cx="73.43" cy="230.177" r="21.518"/><g style="opacity:.2"><path d="M234.327 323.748c-37.254-20.806-62.505-60.629-62.505-106.244 0-67.054 54.552-121.606 121.606-121.606 8.373 0 16.545.868 24.445 2.489l-3.104 10.401 34.556-8.223-24.4-25.814-2.962 9.927a135.826 135.826 0 0 0-28.536-3.03c-74.912 0-135.857 60.945-135.857 135.857 0 52.476 29.909 98.094 73.574 120.715l-8.595-14.242 11.778-.23z"/><path d="m343.561 91.236 10.674 11.293-13.109 3.12c43.413 18.583 73.908 61.723 73.908 111.855 0 67.053-54.552 121.606-121.606 121.606a121.17 121.17 0 0 1-35.207-5.207l4.222-7.652-35.514.689 18.353 30.412 5.915-10.719a135.294 135.294 0 0 0 42.23 6.729c74.912 0 135.857-60.945 135.857-135.857.001-57.216-35.552-106.279-85.723-126.269z"/></g><path style="fill:#92e3a9;stroke:#263238;stroke-linecap:round;stroke-linejoin:round;stroke-miterlimit:10" d="m454.028 69.228-22.899-4.37-.039.078c-1.143 2.311-3.006 3.597-4.734 3.268l-.994-.19c-1.728-.33-2.986-2.212-3.198-4.781l-.007-.087-22.899-4.37c-6.378-1.217-12.535 2.966-13.752 9.344l-29.703 150.71a6.746 6.746 0 0 0 5.362 7.891l64.613 12.33a6.746 6.746 0 0 0 7.891-5.362l29.703-150.71c1.217-6.377-2.966-12.534-9.344-13.751z"/><path style="fill:#fff;stroke:#263238;stroke-linecap:round;stroke-linejoin:round;stroke-miterlimit:10" d="m462.73 86.344.642-3.365c1.217-6.378-2.966-12.535-9.344-13.752l-22.899-4.37-.039.078c-1.143 2.311-3.006 3.597-4.734 3.268l-.994-.19c-1.728-.33-2.986-2.212-3.198-4.781l-.007-.087-22.899-4.37c-6.378-1.217-12.535 2.966-13.752 9.344l-.642 3.365 77.866 14.86z"/><path style="fill:#707070;stroke:#263238;stroke-linecap:round;stroke-linejoin:round;stroke-miterlimit:10" d="m457.711 134.604 2.793-14.634-1.324-.253 8.325-38.685c1.217-6.378-2.967-12.535-9.344-13.752l-62.029-11.837c-6.378-1.217-12.535 2.966-13.752 9.344l-30.534 155.064c-1.217 6.378 2.967 12.535 9.344 13.752l62.029 11.837c6.378 1.217 12.535-2.967 13.752-9.344l17.036-89.274 1.324.253 1.65-8.647-1.324-.253.73-3.825 1.324.254zm-22.795 92.552c-1.217 6.378-7.374 10.561-13.752 9.344l-54.77-10.452c-6.378-1.217-10.561-7.374-9.344-13.752L385.506 68.12c1.217-6.378 7.374-10.561 13.752-9.344l22.899 4.37.007.087c.212 2.57 1.47 4.451 3.198 4.781l.994.19c1.728.33 3.591-.956 4.734-3.268l.039-.078 22.899 4.37c6.378 1.217 10.561 7.374 9.344 13.752l-28.456 144.176z"/><path style="fill:#263238;stroke:#263238;stroke-linecap:round;stroke-linejoin:round;stroke-miterlimit:10" d="m455.834 68.486-57.982-11.065c-6.757-1.289-13.279 3.143-14.569 9.9l-29.665 150.51c-1.289 6.757 3.143 13.279 9.9 14.569l57.982 11.065c6.757 1.289 13.279-3.143 14.569-9.899l29.665-150.51c1.289-6.758-3.143-13.281-9.9-14.57zm-20.918 158.67c-1.217 6.378-7.374 10.561-13.752 9.344l-54.77-10.452c-6.378-1.217-10.561-7.374-9.344-13.752L385.506 68.12c1.217-6.378 7.374-10.561 13.752-9.344l22.899 4.37.007.087c.212 2.57 1.47 4.451 3.198 4.781l.994.19c1.728.33 3.591-.956 4.734-3.268l.039-.078 22.899 4.37c6.378 1.217 10.561 7.374 9.344 13.752l-28.456 144.176z"/><path style="fill:#707070" d="M427.384 64.717a1.104 1.104 0 1 0-2.169-.413 1.104 1.104 0 0 0 2.169.413z"/><path style="fill:#263238" d="M393.731 62.601c-.209 1.097-1.517 1.257-1.681 2.093l-.011.057 1.195.228-.07.369-1.596-.304.06-.312c.224-1.175 1.5-1.168 1.695-2.192.071-.374-.016-.595-.317-.653-.296-.056-.467.132-.529.454l-.061.322-.379-.072.056-.296c.106-.556.431-.877.992-.77.567.108.752.52.646 1.076zM395.724 62.976l-.018.093c-.071.374-.272.611-.584.664.285.173.367.474.298.838l-.054.281c-.106.556-.435.87-.997.763-.556-.106-.746-.52-.64-1.076l.048-.25.379.072-.053.275c-.063.328.035.551.326.607.296.056.463-.111.533-.48l.054-.281c.068-.359-.05-.559-.355-.628l-.218-.042.07-.364.239.046c.272.041.472-.098.532-.415l.032-.167c.071-.374-.022-.591-.318-.648-.291-.056-.465.121-.527.449l-.036.187-.379-.072.032-.166c.106-.556.434-.865.99-.759.56.109.752.517.646 1.073zM396.457 63.402l-.096.504-.39-.074.096-.504.39.074zm-.378 1.98-.096.504-.39-.074.096-.504.39.074zM397.215 63.886a.595.595 0 0 1 .598-.198c.468.089.61.472.511.992l-.136.712c-.106.556-.44.869-.996.763-.556-.106-.747-.52-.641-1.076l.047-.244.379.072-.051.27c-.063.328.035.551.326.606.291.056.464-.116.527-.444l.135-.707c.063-.327-.035-.551-.326-.606-.223-.043-.398.053-.485.312l-.016.083-.379-.072.485-2.003 1.434.274-.069.364-1.071-.204-.272 1.106zM400.57 63.896l-.013.068-.379-.072.018-.093c.063-.328-.036-.546-.332-.602-.307-.059-.48.113-.554.503l-.156.816c.146-.231.371-.333.662-.278.468.089.611.467.511.992l-.105.551c-.106.556-.452.867-1.008.761-.561-.107-.767-.524-.661-1.08l.354-1.856c.11-.577.439-.886 1.016-.776.561.106.754.51.647 1.066zm-1.512 1.123-.104.546c-.063.328.035.551.331.607.291.055.469-.115.532-.443l.104-.546c.063-.328-.04-.552-.331-.607-.297-.057-.47.115-.532.443z"/><path transform="rotate(10.807 439.511 72.825)" style="fill:#263238" d="M438.981 71.515h1.046v2.615h-1.046z"/><path transform="rotate(10.796 440.946 72.872)" style="fill:#263238" d="M440.4 71.257h1.046v3.139H440.4z"/><path transform="rotate(10.796 442.35 72.95)" style="fill:#263238" d="M441.805 71.15h1.046v3.511h-1.046z"/><path transform="rotate(10.796 443.776 72.893)" style="fill:#263238" d="M443.235 70.77h1.046v4.157h-1.046z"/><path style="fill:#263238" d="m456.609 77.344-6.164-1.176.719-3.767 6.164 1.176-.719 3.767zm-5.756-1.453 5.479 1.046.588-3.082-5.479-1.046-.588 3.082z"/><path transform="rotate(10.796 453.378 74.822)" style="fill:#263238" d="M451.631 73.569h3.312v2.379h-3.312z"/><path transform="rotate(10.796 457.105 75.525)" style="fill:#263238" d="M456.748 75.042h.789v.903h-.789z"/><path style="fill:#263238" d="M448.341 74.917a.24.24 0 0 1-.112-.055c-1.112-.985-2.073-.451-2.114-.428a.235.235 0 0 1-.237-.404c.052-.031 1.285-.737 2.662.482a.234.234 0 0 1-.199.405z"/><path style="fill:#263238" d="M448.953 74.232a.233.233 0 0 1-.111-.055c-1.608-1.425-3.026-.614-3.041-.606a.234.234 0 1 1-.238-.404c.018-.011 1.728-.989 3.59.659a.234.234 0 0 1-.2.406z"/><path style="fill:#263238" d="M449.545 73.416a.24.24 0 0 1-.112-.055c-2.036-1.804-3.809-.81-3.884-.766a.234.234 0 0 1-.237-.404c.021-.013 2.132-1.219 4.432.82a.234.234 0 0 1-.199.405zM447.575 75.171a.588.588 0 1 1-1.155-.22.588.588 0 0 1 1.155.22z"/><path style="fill:#fff;stroke:#263238;stroke-miterlimit:10" d="m431.786 183.986-54.268-10.356a5.337 5.337 0 0 1-4.242-6.243l8.693-45.551a5.338 5.338 0 0 1 6.243-4.243l54.268 10.356a5.337 5.337 0 0 1 4.242 6.244l-8.693 45.551a5.337 5.337 0 0 1-6.243 4.242z"/><path style="fill:#263238" d="m398.24 110.787-.698-5.342.907.173.486 4.083 1.966-3.615.827.158-2.626 4.708-.536 2.809-.862-.165.536-2.809zM401.761 108.211c.229-1.198.969-1.857 2.167-1.628 1.208.231 1.654 1.116 1.426 2.314l-.773 4.052c-.226 1.187-.969 1.857-2.178 1.626-1.198-.229-1.641-1.125-1.415-2.312l.773-4.052zm.08 4.261c-.137.716.087 1.188.714 1.308.638.122 1.008-.237 1.144-.953l.79-4.141c.135-.705-.075-1.186-.713-1.308-.627-.12-1.011.248-1.145.953l-.79 4.141zM406.23 113.31c-.135.705.064 1.184.702 1.306.627.12.988-.252 1.122-.957l1.143-5.988.818.156-1.134 5.943c-.226 1.187-.927 1.876-2.135 1.646-1.198-.229-1.595-1.128-1.368-2.314l1.134-5.943.861.164-1.143 5.987zM412.625 108.324c1.231.235 1.626.96 1.404 2.124l-.122.638c-.165.862-.57 1.342-1.282 1.426.676.349.833.983.673 1.822l-.233 1.22c-.066.347-.117.673-.023.97l-.884-.169c-.058-.243-.065-.453.036-.979l.235-1.231c.169-.884-.192-1.243-.92-1.382l-.615-.117-.639 3.346-.873-.167 1.495-7.835 1.748.334zm-.929 3.651c.694.132 1.151-.012 1.313-.863l.143-.75c.135-.705-.052-1.124-.702-1.248l-.85-.162-.553 2.899.649.124zM420.124 111.716l-.135.705-.828-.158.143-.75c.134-.705-.064-1.184-.702-1.306-.627-.12-.999.25-1.134.955l-.79 4.141c-.135.705.075 1.186.702 1.306.638.122.999-.25 1.133-.955l.194-1.018.828.158-.186.974c-.226 1.187-.935 1.863-2.145 1.632-1.197-.228-1.607-1.118-1.381-2.305l.773-4.052c.226-1.186.935-1.863 2.133-1.635 1.212.231 1.622 1.122 1.395 2.308zM420.854 111.855c.229-1.197.969-1.857 2.167-1.628 1.209.231 1.655 1.116 1.427 2.314l-.773 4.052c-.226 1.187-.969 1.857-2.178 1.626-1.198-.229-1.641-1.125-1.415-2.312l.772-4.052zm.08 4.261c-.137.716.087 1.188.713 1.308.638.122 1.009-.237 1.145-.953l.79-4.141c.135-.705-.076-1.186-.714-1.308-.626-.119-1.01.248-1.144.953l-.79 4.141zM427.474 111.158c1.22.233 1.639 1.078 1.408 2.287l-.754 3.951c-.228 1.197-.929 1.829-2.149 1.596l-1.835-.35 1.495-7.835 1.835.351zm-1.355 7.038c.627.12 1.003-.215 1.14-.931l.769-4.029c.137-.716-.09-1.166-.728-1.288l-.94-.179-1.192 6.245.951.182zM432.197 115.655l-.149.783-1.914-.365-.532 2.787 2.35.449-.152.795-3.223-.615 1.495-7.835 3.223.615-.152.795-2.35-.449-.51 2.675 1.914.365zM392.216 142.534c.618-.714 1.438-.995 2.43-.806 1.901.363 2.479 1.918 2.076 4.029l-.552 2.893c-.431 2.259-1.79 3.532-4.05 3.101-2.259-.431-3.033-2.111-2.602-4.37l.19-.993 1.542.294-.21 1.098c-.254 1.331.142 2.238 1.324 2.463 1.183.226 1.885-.472 2.139-1.803l.548-2.872c.254-1.331-.142-2.238-1.325-2.463-.908-.173-1.617.217-1.971 1.265l-.064.338-1.541-.294 1.969-8.138 5.829 1.112-.282 1.478-4.351-.83-1.099 4.498zM405.844 142.574l-.052.275-1.542-.294.073-.38c.254-1.33-.146-2.216-1.35-2.446-1.246-.238-1.948.46-2.251 2.044l-.633 3.315c.595-.937 1.506-1.354 2.689-1.128 1.9.363 2.483 1.896 2.076 4.029l-.427 2.239c-.431 2.259-1.832 3.524-4.092 3.093-2.281-.435-3.118-2.127-2.687-4.386l1.439-7.539c.447-2.344 1.782-3.6 4.126-3.152 2.28.433 3.062 2.07 2.631 4.33zm-6.146 4.561-.423 2.217c-.254 1.331.143 2.238 1.346 2.468 1.182.225 1.906-.468 2.16-1.799l.423-2.217c.254-1.33-.164-2.242-1.346-2.467-1.203-.23-1.906.468-2.16 1.798zM414.059 144.141l-.052.275-1.542-.294.073-.38c.254-1.33-.146-2.216-1.35-2.446-1.246-.238-1.948.46-2.251 2.044l-.633 3.315c.595-.937 1.506-1.354 2.689-1.128 1.9.363 2.483 1.896 2.076 4.029l-.427 2.239c-.431 2.259-1.832 3.524-4.092 3.093-2.281-.435-3.118-2.127-2.687-4.386l1.439-7.539c.447-2.344 1.782-3.6 4.126-3.152 2.279.434 3.062 2.071 2.631 4.33zm-6.146 4.562-.423 2.217c-.254 1.331.143 2.238 1.346 2.468 1.182.226 1.906-.468 2.16-1.799l.423-2.217c.254-1.33-.163-2.242-1.345-2.467-1.205-.23-1.907.468-2.161 1.798zM422.269 145.73l-1.439 7.539c-.447 2.344-1.786 3.621-4.151 3.169-2.259-.431-3.058-2.094-2.627-4.353l.052-.275 1.541.294-.073.381c-.254 1.33.168 2.22 1.35 2.446 1.267.242 1.969-.456 2.267-2.018l.633-3.315c-.594.937-1.501 1.333-2.684 1.107-1.9-.363-2.487-1.875-2.08-4.008l.431-2.26c.431-2.259 1.807-3.507 4.087-3.072 2.283.435 3.125 2.106 2.693 4.365zm-5.136-1.067-.423 2.217c-.254 1.33.163 2.242 1.345 2.467 1.204.23 1.906-.468 2.16-1.799l.423-2.217c.258-1.352-.142-2.238-1.345-2.467-1.183-.226-1.902.447-2.16 1.799zM430.643 147.262l-.089.465c-.286 1.499-1.023 2.497-2.27 2.719 1.132.719 1.375 1.969 1.093 3.447l-.21 1.098c-.435 2.281-1.888 3.47-4.189 3.031-2.302-.439-3.215-2.08-2.78-4.361l.21-1.098c.286-1.499.964-2.53 2.307-2.799-1.115-.695-1.416-1.868-1.13-3.368l.089-.465c.435-2.281 1.901-3.423 4.182-2.988 2.28.437 3.222 2.039 2.787 4.319zm-5.35-.977-.137.718c-.274 1.436.301 2.202 1.463 2.424 1.161.222 1.979-.279 2.253-1.715l.137-.718c.29-1.521-.274-2.35-1.435-2.572-1.162-.221-1.991.343-2.281 1.863zm-1.221 6.399-.238 1.246c-.29 1.52.248 2.367 1.431 2.593 1.182.225 1.974-.368 2.285-1.884l.238-1.246c.274-1.436-.226-2.253-1.451-2.487-1.225-.234-1.991.342-2.265 1.778z"/><path style="fill:none;stroke:#263238;stroke-miterlimit:10" d="m377.37 186.508 51.056 9.743M375.469 196.47l51.056 9.744M460.162 148.976l12.35-1.9M458.261 163.227l6.651 1.9M454.461 175.577l12.351 8.551"/><path style="fill:#263238" d="M341.775 172.701a2.42 2.42 0 0 0 2.42-2.42V150.29a2.42 2.42 0 0 0-2.42-2.42h-.109v-7.82c0-5.327-4.319-9.646-9.646-9.646h-211c-5.327 0-9.646 4.319-9.646 9.646v145.765a9.646 9.646 0 0 0 9.646 9.646h211c5.327 0 9.646-4.319 9.646-9.646v-52.297h.109a2.42 2.42 0 0 0 2.42-2.42v-19.992a2.42 2.42 0 0 0-2.42-2.42h-.109v-2.525h.109a2.42 2.42 0 0 0 2.42-2.42v-19.992a2.42 2.42 0 0 0-2.42-2.42h-.109v-8.628h.109z"/><path style="fill:#92e3a9;stroke:#263238;stroke-miterlimit:10" d="M119.976 136.834h213.088V289.03H119.976z"/><path style="fill:#e3e3e3;stroke:#263238;stroke-miterlimit:10" d="M167.293 156.4h119.168v95.715H167.293z"/><path style="fill:#b2b2b2" d="M212.127 225.587v.599h-1.462v2.13h1.796v.607h-2.463v-5.987h2.463v.607h-1.796v2.044h1.462zM213.666 228.923h-.599v-5.987h.847l1.386 4.328v-4.328h.59v5.987h-.693l-1.531-4.841v4.841zM217.437 228.923v-5.38h-1.104v-.607h2.866v.607h-1.104v5.38h-.658zM221.781 225.587v.599h-1.462v2.13h1.796v.607h-2.463v-5.987h2.463v.607h-1.796v2.044h1.462zM224.063 222.936c.941 0 1.334.479 1.334 1.368v.488c0 .658-.231 1.069-.744 1.232.547.162.752.607.752 1.249v.932c0 .265.009.514.12.719h-.676c-.077-.171-.111-.325-.111-.727v-.941c0-.676-.316-.89-.872-.89h-.47v2.557h-.667v-5.987h1.334zm-.171 2.822c.53 0 .847-.171.847-.821v-.573c0-.539-.197-.821-.693-.821h-.65v2.215h.496zM230.066 224.382v.539h-.633v-.573c0-.539-.214-.864-.701-.864-.479 0-.701.325-.701.864v3.165c0 .539.222.864.701.864.488 0 .701-.325.701-.864v-.778h.633v.744c0 .906-.428 1.505-1.351 1.505-.915 0-1.343-.599-1.343-1.505v-3.096c0-.907.428-1.505 1.343-1.505.923-.002 1.351.597 1.351 1.504zM230.621 224.382c0-.915.453-1.505 1.368-1.505.924 0 1.377.59 1.377 1.505v3.096c0 .906-.453 1.505-1.377 1.505-.915 0-1.368-.599-1.368-1.505v-3.096zm.659 3.13c0 .547.23.864.71.864.488 0 .71-.316.71-.864v-3.165c0-.539-.222-.864-.71-.864-.479 0-.71.325-.71.864v3.165zM235.401 222.936c.932 0 1.36.565 1.36 1.488v3.019c0 .915-.428 1.48-1.36 1.48h-1.403v-5.987h1.403zm-.009 5.38c.479 0 .71-.299.71-.847v-3.079c0-.547-.231-.847-.719-.847h-.718v4.772h.727zM239.514 225.587v.599h-1.462v2.13h1.796v.607h-2.463v-5.987h2.463v.607h-1.796v2.044h1.462z"/><path style="fill:#fff;stroke:#263238;stroke-miterlimit:10" d="M176.494 188.014h100.561v11.347H176.494zM176.494 206.013h100.561v11.347H176.494zM231.487 231.613h9.495v11.347h-9.495zM219.403 231.613h9.495v11.347h-9.495zM207.319 231.613h9.494v11.347h-9.494zM195.667 231.613h9.063v11.347h-9.063zM243.571 231.613h9.839v11.347h-9.839z"/><path style="fill:#263238" d="M231.67 169.389v-2.178a6.42 6.42 0 0 0-6.414-6.414 6.42 6.42 0 0 0-6.414 6.414v2.178h-.12v12.063h13.068v-12.063h-.12zm-6.028 6.63v2.185h-1.238v-2.185a1.65 1.65 0 1 1 1.238 0zm3.587-6.63h-7.947v-2.178a3.978 3.978 0 0 1 3.973-3.973 3.977 3.977 0 0 1 3.973 3.973v2.178z"/><path style="fill:#b2b2b2" d="M211.199 195.067c0 .539.214.864.701.864.479 0 .693-.325.693-.864v-4.576h.624v4.542c0 .906-.419 1.514-1.343 1.514-.915 0-1.334-.608-1.334-1.514v-4.542h.659v4.576zM216.467 191.928v.163h-.633v-.197c0-.539-.206-.855-.684-.855-.479 0-.684.316-.684.847 0 1.343 2.01 1.471 2.01 3.156 0 .907-.437 1.497-1.352 1.497s-1.342-.59-1.342-1.497v-.342h.624v.376c0 .539.222.855.701.855s.701-.316.701-.855c0-1.334-2.001-1.463-2.001-3.148 0-.924.428-1.496 1.326-1.496.906 0 1.334.589 1.334 1.496zM219.186 193.142v.599h-1.462v2.13h1.796v.607h-2.463v-5.987h2.463v.607h-1.796v2.044h1.462zM221.468 190.491c.941 0 1.334.479 1.334 1.368v.488c0 .658-.231 1.069-.744 1.232.547.162.752.607.752 1.249v.932c0 .265.009.513.12.719h-.676c-.077-.171-.111-.325-.111-.727v-.941c0-.676-.316-.89-.872-.89h-.47v2.557h-.668v-5.987h1.335zm-.171 2.823c.53 0 .847-.171.847-.821v-.573c0-.539-.197-.821-.693-.821h-.65v2.215h.496zM225.418 196.478h-.599v-5.987h.847l1.386 4.328v-4.328h.59v5.987h-.693l-1.531-4.841v4.841zM229.001 195.272l-.231 1.206h-.616l1.146-5.987h.967l1.146 5.987h-.667l-.231-1.206h-1.514zm.085-.573h1.335l-.676-3.456-.659 3.456zM234.14 196.47h-.641l-.992-4.764v4.773h-.582v-5.987h.932l.983 4.781.95-4.781h.932v5.987h-.633v-4.815l-.949 4.806zM238.535 193.142v.599h-1.462v2.13h1.796v.607h-2.463v-5.987h2.463v.607h-1.796v2.044h1.462zM212.115 211.117l.906 1.001-.436.325-.676-1.189-.667 1.189-.436-.325.898-1.001-1.326-.274.162-.522 1.249.547-.154-1.351h.547l-.145 1.351 1.249-.539.162.521-1.333.267zM215.492 211.117l.906 1.001-.436.325-.676-1.189-.667 1.189-.436-.325.898-1.001-1.326-.274.162-.522 1.249.547-.154-1.351h.547l-.145 1.351 1.249-.539.162.521-1.333.267zM218.869 211.117l.906 1.001-.436.325-.676-1.189-.667 1.189-.436-.325.898-1.001-1.326-.274.162-.522 1.249.547-.154-1.351h.547l-.145 1.351 1.249-.539.162.521-1.333.267zM222.246 211.117l.906 1.001-.436.325-.676-1.189-.667 1.189-.436-.325.898-1.001-1.326-.274.162-.522 1.249.547-.154-1.351h.547l-.145 1.351 1.249-.539.162.521-1.333.267zM225.624 211.117l.906 1.001-.436.325-.676-1.189-.667 1.189-.436-.325.898-1.001-1.326-.274.162-.522 1.249.547-.154-1.351h.547l-.145 1.351 1.249-.539.162.521-1.333.267zM229.001 211.117l.906 1.001-.436.325-.676-1.189-.667 1.189-.436-.325.898-1.001-1.326-.274.162-.522 1.249.547-.154-1.351h.547l-.145 1.351 1.249-.539.162.521-1.333.267zM232.379 211.117l.906 1.001-.436.325-.676-1.189-.667 1.189-.436-.325.898-1.001-1.326-.274.162-.522 1.249.547-.154-1.351h.547l-.145 1.351 1.249-.539.162.521-1.333.267zM235.756 211.117l.906 1.001-.436.325-.676-1.189-.667 1.189-.436-.325.898-1.001-1.326-.274.162-.522 1.249.547-.154-1.351h.547l-.145 1.351 1.249-.539.162.521-1.333.267z"/><ellipse style="fill:#263238" cx="236.955" cy="423.602" rx="63.968" ry="60.111"/><ellipse style="fill:#fff;stroke:#263238;stroke-miterlimit:10" cx="235.613" cy="420.471" rx="63.968" ry="60.111"/><ellipse style="fill:#fff;stroke:#263238;stroke-miterlimit:10" cx="235.613" cy="420.471" rx="55.214" ry="51.886"/><path style="fill:#263238" d="M250.909 385.535c-22.161 0-40.126 22.575-40.126 50.422 0 17.965 7.483 33.725 18.74 42.655 1.859.156 3.738.249 5.64.249 23.294 0 43.611-11.925 54.455-29.624a62.648 62.648 0 0 0 1.417-13.28c0-27.847-17.965-50.422-40.126-50.422z"/><path style="fill:#fff;stroke:#263238;stroke-miterlimit:10" d="M185.124 413.22h26.135v6.252h-26.135z"/><ellipse style="fill:#fff;stroke:#263238;stroke-miterlimit:10" cx="244.828" cy="416.005" rx="39.855" ry="37.452"/><ellipse style="fill:#263238;stroke:#263238;stroke-miterlimit:10" cx="244.828" cy="416.005" rx="33.273" ry="31.267"/><path style="fill:none;stroke:#263238;stroke-miterlimit:10" d="M230.888 387.332a12.638 12.638 0 0 0-.743-1.527c-3.393-5.904-2.969-13.419-.424-20.396"/><path style="fill:none;stroke:#fff;stroke-miterlimit:10" d="M231.417 399.76s1.779-6.756-.53-12.428"/><path style="fill:none;stroke:#263238;stroke-miterlimit:10" d="M243.292 385.805c-3.393-5.904-2.969-13.419-.424-20.396"/><path style="fill:none;stroke:#fff;stroke-miterlimit:10" d="M244.564 399.76s2.12-8.051-1.272-13.955"/><path style="fill:none;stroke:#263238;stroke-miterlimit:10" d="M256.857 386.6a12.058 12.058 0 0 0-.418-.795c-3.393-5.904-2.969-13.419-.424-20.396"/><path style="fill:none;stroke:#fff;stroke-miterlimit:10" d="M257.711 399.76s1.937-7.355-.854-13.16"/><path style="fill:#263238;stroke:#263238;stroke-miterlimit:10" d="M384.138 360.241s-1.041.057-2.904.259c-1.766-5.995-7.062-23.74-10.54-32.908-4.225-11.139-9.987-26.887-13.828-33.417-3.841-6.53-3.457-10.371-10.755-16.516-7.298-6.146-13.828-3.457-13.828-3.457s-1.152-4.609-8.45-6.914c-7.298-2.305-17.285 2.305-17.285 2.305s-1.536-2.689-8.834-1.921-9.987 7.298-9.987 7.298-14.98-29.96-20.742-32.265c-5.762-2.305-11.523 3.457-9.219 8.834 2.305 5.377 19.589 35.338 21.894 42.252 2.305 6.914 7.298 18.437 7.298 18.437s-16.516-11.907-21.51-13.06c-4.993-1.152-12.291-1.921-16.517 2.689-4.225 4.609 5.762 5.762 13.828 13.06s21.126 24.199 27.271 34.954c6.146 10.755 19.205 12.676 24.967 18.821 4.055 4.326 9.819 10.36 12.88 13.557-1.929 2.007-2.893 3.344-2.893 3.344l12.676 31.113s2.689-4.225 13.444-12.676c10.755-8.45 44.172-18.821 44.172-18.821l-11.138-24.968z"/><path style="fill:#fff;stroke:#263238;stroke-miterlimit:10" d="M329.507 376.404s-9.219-9.603-14.98-15.748c-5.762-6.146-18.821-8.066-24.967-18.821-6.146-10.755-19.205-27.656-27.272-34.954-8.066-7.298-18.053-8.45-13.828-13.06 4.225-4.609 11.523-3.841 16.517-2.689 4.993 1.152 21.51 13.06 21.51 13.06s-4.993-11.523-7.298-18.437c-2.305-6.914-19.589-36.874-21.894-42.252-2.305-5.377 3.457-11.139 9.219-8.834 5.762 2.305 20.742 32.265 20.742 32.265s2.689-6.53 9.987-7.298c7.298-.768 8.835 1.921 8.835 1.921s9.987-4.609 17.285-2.305c7.298 2.305 8.45 6.914 8.45 6.914s6.53-2.689 13.828 3.457c7.298 6.146 6.914 9.987 10.755 16.517 3.841 6.53 9.603 22.278 13.828 33.417 4.225 11.139 11.139 34.954 11.139 34.954l-49.55 26.887-2.306-4.994z"/><path style="fill:none;stroke:#263238;stroke-miterlimit:10" d="m287.255 266.934 13.444 19.974M306.077 261.557l12.291 19.205M331.812 266.166l8.45 14.98M292.412 321.375l1.757 5.095M286.487 304.192l4.704 13.641M307.997 291.517l3.073 4.225M322.209 287.292l3.457 4.609M341.03 284.987l2.305 7.298"/><path style="fill:#fff;stroke:#263238;stroke-miterlimit:10" d="M324.514 377.556s8.835-12.291 26.887-18.437c18.053-6.146 32.265-6.914 32.265-6.914l11.139 24.967s-33.417 10.371-44.172 18.821c-10.755 8.45-13.444 12.676-13.444 12.676l-12.675-31.113z"/><path style="fill:#fff;stroke:#263238;stroke-miterlimit:10" d="M354.858 460.523s-14.596-36.49-18.437-44.172c-3.841-7.682 2.305-11.523 2.305-11.523s8.835-11.907 31.881-21.126c23.046-9.219 24.967-9.603 30.728-3.073 5.762 6.53 43.551 79.962 43.551 79.962"/><path style="fill:#263238;stroke:#263238;stroke-miterlimit:10" d="M115.082 422.128s5.221-11.195 17.655-17.539c12.434-6.343 20.515-9.073 32.413-20.809 11.898-11.736 31.508-22.218 39.594-23.663 8.086-1.445 10.77-4.924 7.286-8.892-3.484-3.968-12.989-4.187-21.455-1.327s-16.287 6.359-16.287 6.359c4.287-8.442 7.14-18.607 11.361-27.081 2.995-6.013 7.914-15.934 10.825-21.989 1.9-3.951 7.563-10.531 5.045-14.846-2.535-4.343-8.588-1.454-11.658 2.673-4.878 6.559-28.749 42.543-28.749 42.543a373926.979 373926.979 0 0 0 22.806-48.279c2.011-4.256 5.923-9.955 3.535-14.864-2.421-4.977-9.431-5.488-12.34-.749-3.318 5.408-28.687 53.418-28.687 53.418s15.88-41.209 17.909-45.945c2.479-5.784 1.015-10.825-2.642-10.796-5.315.042-7.827 5.926-9.91 9.928l1.161-1.688c-4.969 6.625-8.311 15.331-12.466 22.52a714.87 714.87 0 0 1-15.081 24.905c1.021-8.492 4.429-16.447 8.651-23.813 2.548-4.443 13.155-15.354 11.343-20.718-1.56-4.618-13.193 4.059-19.959 13.531-3.688 5.163-13.352 19.239-16.009 29.14s-21.276 43.627-26.248 53.023c-4.972 9.396-10.942 25.989-10.942 25.989l42.849 18.969z"/><path style="fill:#263238;stroke:#263238;stroke-miterlimit:10" d="M129.266 413.074s-9.575-11.723-27.973-16.744c-18.397-5.021-32.63-4.911-32.63-4.911l-9.578 25.606s33.993 8.291 45.249 16.062c11.256 7.771 14.2 11.822 14.2 11.822l10.732-31.835z"/><path style="fill:#fff;stroke:#263238;stroke-miterlimit:10" d="M113.816 417.694s5.221-11.195 17.655-17.539c12.434-6.343 20.515-9.073 32.413-20.809 11.898-11.736 31.508-22.218 39.594-23.663 8.086-1.445 10.77-4.924 7.286-8.892-3.484-3.968-12.989-4.187-21.455-1.327-8.466 2.859-16.287 6.359-16.287 6.358 4.287-8.442 7.14-18.607 11.361-27.081 2.995-6.013 7.914-15.934 10.825-21.989 1.9-3.951 7.563-10.531 5.045-14.846-2.535-4.343-8.588-1.454-11.658 2.673-4.878 6.559-28.749 42.543-28.749 42.543a373926.979 373926.979 0 0 0 22.806-48.279c2.011-4.256 5.923-9.955 3.535-14.864-2.422-4.977-9.431-5.488-12.34-.749-3.318 5.408-28.686 53.418-28.686 53.418s15.88-41.209 17.909-45.945c2.479-5.784 1.015-10.825-2.642-10.797-5.315.042-7.827 5.926-9.91 9.928l1.161-1.688c-4.969 6.625-8.311 15.331-12.466 22.52a714.87 714.87 0 0 1-15.081 24.905c1.021-8.492 4.429-16.447 8.651-23.813 2.548-4.444 13.155-15.354 11.343-20.718-1.56-4.618-13.193 4.06-19.959 13.531-3.688 5.163-13.352 19.239-16.009 29.14-2.658 9.901-21.276 43.627-26.248 53.023-4.972 9.396-10.942 25.989-10.942 25.989l42.848 18.971z"/><path style="fill:none;stroke:#263238;stroke-miterlimit:10" d="m145.162 322.65-4.587 9.266M159.846 333.124l-3.578 4.638M173.022 351.824l-4.597 6.697M149.242 347.423l-.369 3.983M137.782 340.148l.015 3.853M120.924 332.123l.925 6.547"/><path style="fill:#fff;stroke:#263238;stroke-miterlimit:10" d="M127.999 408.641s-9.575-11.723-27.973-16.744c-18.397-5.021-32.63-4.911-32.63-4.911l-9.578 25.606s33.993 8.291 45.249 16.062c11.256 7.771 14.2 11.822 14.2 11.822l10.732-31.835z"/><path style="fill:#fff;stroke:#263238;stroke-miterlimit:10" d="M112.765 464.008s2.382-8.008 5.742-15.913c3.36-7.904-3.011-11.359-3.011-11.359s-9.552-11.34-33.123-19.12-25.511-8.045-30.859-1.172c-5.348 6.873-22.557 48.176-22.557 48.176"/></svg>