<svg xmlns="http://www.w3.org/2000/svg" width="48" height="48"><radialGradient id="a" cx="24" cy="24" r="22" gradientUnits="userSpaceOnUse"><stop offset=".724" stop-color="#ffed54"/><stop offset=".779" stop-color="#ffe649"/><stop offset=".877" stop-color="#ffd22d"/><stop offset="1" stop-color="#ffb300"/></radialGradient><path fill="url(#a)" d="m24 2 1.421 1.474a3.001 3.001 0 0 0 3.571.566l1.807-.963.896 1.841a3 3 0 0 0 3.222 1.641l2.016-.357.283 2.028a3 3 0 0 0 2.557 2.557l2.028.283-.357 2.016a3.001 3.001 0 0 0 1.641 3.222l1.841.896-.963 1.807a2.998 2.998 0 0 0 .566 3.571L46 24l-1.474 1.421a3.001 3.001 0 0 0-.566 3.571l.963 1.807-1.841.896a3 3 0 0 0-1.641 3.222l.357 2.016-2.028.283a3 3 0 0 0-2.557 2.557l-.283 2.028-2.016-.357a3.001 3.001 0 0 0-3.222 1.641l-.896 1.841-1.807-.963a2.998 2.998 0 0 0-3.571.566L24 46l-1.421-1.474a3.001 3.001 0 0 0-3.571-.566l-1.807.963-.896-1.841a3 3 0 0 0-3.222-1.641l-2.016.357-.283-2.028a3 3 0 0 0-2.557-2.557l-2.028-.283.357-2.016a3.001 3.001 0 0 0-1.641-3.222l-1.841-.896.963-1.807a2.998 2.998 0 0 0-.566-3.571L2 24l1.474-1.421a3.001 3.001 0 0 0 .566-3.571l-.963-1.807 1.841-.896a3 3 0 0 0 1.641-3.222l-.357-2.016 2.028-.283a3 3 0 0 0 2.557-2.557l.283-2.028 2.016.357a3.001 3.001 0 0 0 3.222-1.641l.896-1.841 1.807.963c1.183.631 2.641.4 3.571-.566L24 2z"/><linearGradient id="b" x1="8.092" x2="35.996" y1="8.092" y2="35.996" gradientUnits="userSpaceOnUse"><stop offset="0" stop-color="#fed100"/><stop offset="1" stop-color="#e36001"/></linearGradient><path fill="url(#b)" d="M24 7C14.611 7 7 14.611 7 24s7.611 17 17 17 17-7.611 17-17S33.389 7 24 7z"/></svg>